# xmcd CD database file
#
# Track frame offsets:
#	150
#	19144
#	37653
#	56648
#
# Disc length: 999 seconds
#
# Revision: 2
# Processed by: cddbd v1.5.2PL0 Copyright (c) Steve Scherf et al.
# Submitted via: CDex 1.70beta2
#
DISCID=2603e504
DTITLE=井口裕香 - Grow Slowly （アニメ「とある科学の超電磁砲S」ＥＤテーマ）
DYEAR=2013
DGENRE=声優
TTITLE0=Grow Slowly （アニメ「とある科学の超電磁砲S」ＥＤテーマ）
TTITLE1=stand still
TTITLE2=Grow Slowly inst
TTITLE3=stand still inst
EXTD=YEAR: 2013
EXTT0=
EXTT1=
EXTT2=
EXTT3=
PLAYORDER=
